<svg width="46" height="31" viewBox="0 0 46 31" fill="none" xmlns="http://www.w3.org/2000/svg">
<path d="M45.1281 14.4595C40.8914 6.19307 32.5039 0.600098 22.9 0.600098C13.2961 0.600098 4.90623 6.19697 0.671857 14.4603C0.493139 14.8138 0.400024 15.2044 0.400024 15.6005C0.400024 15.9966 0.493139 16.3872 0.671857 16.7407C4.90858 25.0071 13.2961 30.6001 22.9 30.6001C32.5039 30.6001 40.8937 25.0032 45.1281 16.7399C45.3068 16.3864 45.3999 15.9958 45.3999 15.5997C45.3999 15.2036 45.3068 14.813 45.1281 14.4595ZM22.9 26.8501C20.6749 26.8501 18.4999 26.1903 16.6498 24.9541C14.7998 23.718 13.3578 21.961 12.5063 19.9053C11.6549 17.8496 11.4321 15.5876 11.8661 13.4053C12.3002 11.223 13.3717 9.21848 14.945 7.64514C16.5184 6.0718 18.5229 5.00035 20.7052 4.56626C22.8875 4.13218 25.1495 4.35497 27.2052 5.20645C29.2608 6.05794 31.0178 7.49988 32.254 9.34993C33.4902 11.2 34.15 13.3751 34.15 15.6001C34.1507 17.0777 33.8602 18.5409 33.2951 19.9061C32.73 21.2714 31.9013 22.5118 30.8565 23.5566C29.8117 24.6014 28.5713 25.4301 27.206 25.9952C25.8408 26.5603 24.3776 26.8508 22.9 26.8501ZM22.9 8.1001C22.2306 8.10945 21.5654 8.20905 20.9226 8.39619C21.4525 9.11625 21.7068 10.0024 21.6393 10.8938C21.5719 11.7853 21.1872 12.623 20.5551 13.2552C19.9229 13.8873 19.0851 14.272 18.1937 14.3394C17.3022 14.4069 16.4161 14.1526 15.6961 13.6228C15.286 15.1334 15.3601 16.7345 15.9077 18.2009C16.4553 19.6672 17.449 20.9249 18.7489 21.7969C20.0488 22.669 21.5894 23.1114 23.1539 23.062C24.7184 23.0125 26.228 22.4738 27.4702 21.5214C28.7124 20.5691 29.6248 19.2512 30.0788 17.7532C30.5327 16.2552 30.5056 14.6526 30.001 13.1709C29.4964 11.6891 28.5399 10.4029 27.2661 9.49331C25.9923 8.58368 24.4653 8.09641 22.9 8.1001Z" fill="white"/>
</svg>
