<svg width="33" height="32" viewBox="0 0 33 32" fill="none" xmlns="http://www.w3.org/2000/svg">
<path d="M10.9775 25.7664C10.9775 25.8987 10.8253 26.0046 10.6334 26.0046C10.4151 26.0244 10.2629 25.9185 10.2629 25.7664C10.2629 25.634 10.4151 25.5281 10.6069 25.5281C10.8055 25.5083 10.9775 25.6142 10.9775 25.7664ZM8.91963 25.4686C8.87331 25.6009 9.00565 25.7531 9.20416 25.7928C9.3762 25.859 9.57471 25.7928 9.61441 25.6605C9.65411 25.5281 9.52839 25.376 9.32988 25.3164C9.15784 25.2701 8.96595 25.3363 8.91963 25.4686ZM11.8443 25.3561C11.6524 25.4024 11.5201 25.5281 11.5399 25.6803C11.5598 25.8127 11.7318 25.8987 11.9303 25.8524C12.1222 25.8061 12.2546 25.6803 12.2347 25.548C12.2149 25.4223 12.0362 25.3363 11.8443 25.3561ZM16.1983 0C7.02057 0 0 6.96763 0 16.1453C0 23.4835 4.61862 29.763 11.2157 31.973C12.0627 32.1252 12.3604 31.6025 12.3604 31.1724C12.3604 30.7621 12.3406 28.4991 12.3406 27.1096C12.3406 27.1096 7.70873 28.1021 6.73604 25.1377C6.73604 25.1377 5.98171 23.2122 4.89653 22.7159C4.89653 22.7159 3.38125 21.6771 5.0024 21.6969C5.0024 21.6969 6.65002 21.8293 7.55654 23.4041C9.00565 25.9582 11.4341 25.2238 12.3803 24.787C12.5325 23.7283 12.9626 22.9939 13.439 22.5571C9.74013 22.1469 6.00818 21.6109 6.00818 15.2454C6.00818 13.4258 6.51107 12.5126 7.56978 11.348C7.39774 10.9179 6.8353 9.14461 7.74182 6.85515C9.12476 6.42505 12.3075 8.64172 12.3075 8.64172C13.6309 8.27117 15.0535 8.07928 16.4629 8.07928C17.8723 8.07928 19.295 8.27117 20.6184 8.64172C20.6184 8.64172 23.8011 6.41843 25.1841 6.85515C26.0906 9.15122 25.5281 10.9179 25.3561 11.348C26.4148 12.5192 27.0633 13.4324 27.0633 15.2454C27.0633 21.6308 23.1659 22.1403 19.467 22.5571C20.0758 23.0799 20.5919 24.0724 20.5919 25.6274C20.5919 27.8573 20.5721 30.6166 20.5721 31.1592C20.5721 31.5893 20.8764 32.112 21.7168 31.9598C28.3337 29.763 32.82 23.4835 32.82 16.1453C32.82 6.96763 25.376 0 16.1983 0ZM6.43166 22.8218C6.34564 22.888 6.36549 23.0402 6.47798 23.1659C6.58385 23.2718 6.73604 23.3181 6.82206 23.2321C6.90808 23.1659 6.88823 23.0137 6.77574 22.888C6.66987 22.7821 6.51768 22.7358 6.43166 22.8218ZM5.71703 22.2858C5.67071 22.3719 5.73688 22.4777 5.86922 22.5439C5.97509 22.6101 6.10743 22.5902 6.15375 22.4976C6.20007 22.4116 6.1339 22.3057 6.00156 22.2395C5.86922 22.1998 5.76335 22.2197 5.71703 22.2858ZM7.86092 24.6415C7.75505 24.7275 7.79475 24.926 7.94694 25.0517C8.09913 25.2039 8.29102 25.2238 8.37704 25.1179C8.46306 25.0319 8.42336 24.8334 8.29102 24.7076C8.14545 24.5555 7.94694 24.5356 7.86092 24.6415ZM7.10659 23.6688C7.00072 23.735 7.00072 23.907 7.10659 24.0592C7.21246 24.2114 7.39112 24.2775 7.47714 24.2114C7.58301 24.1254 7.58301 23.9533 7.47714 23.8011C7.3845 23.6489 7.21246 23.5828 7.10659 23.6688Z" fill="#999999"/>
</svg>
