<svg width="33" height="32" viewBox="0 0 33 32" fill="none" xmlns="http://www.w3.org/2000/svg">
<path d="M29.7289 0H2.29322C1.03608 0 0.0146484 1.03571 0.0146484 2.30714V29.6929C0.0146484 30.9643 1.03608 32 2.29322 32H29.7289C30.9861 32 32.0146 30.9643 32.0146 29.6929V2.30714C32.0146 1.03571 30.9861 0 29.7289 0ZM9.68608 27.4286H4.94322V12.1571H9.69322V27.4286H9.68608ZM7.31465 10.0714C5.79322 10.0714 4.56465 8.83571 4.56465 7.32143C4.56465 5.80714 5.79322 4.57143 7.31465 4.57143C8.82893 4.57143 10.0646 5.80714 10.0646 7.32143C10.0646 8.84286 8.83608 10.0714 7.31465 10.0714ZM27.4646 27.4286H22.7218V20C22.7218 18.2286 22.6861 15.95 20.2575 15.95C17.7861 15.95 17.4075 17.8786 17.4075 19.8714V27.4286H12.6646V12.1571H17.2146V14.2429H17.2789C17.9146 13.0429 19.4646 11.7786 21.7718 11.7786C26.5718 11.7786 27.4646 14.9429 27.4646 19.0571V27.4286Z" fill="#999999"/>
</svg>
