<svg width="25" height="20" viewBox="0 0 25 20" fill="none" xmlns="http://www.w3.org/2000/svg">
<path d="M24.5264 6.81641C24.7168 6.66504 25 6.80664 25 7.0459V17.0312C25 18.3252 23.9502 19.375 22.6562 19.375H2.34375C1.0498 19.375 0 18.3252 0 17.0312V7.05078C0 6.80664 0.27832 6.66992 0.473633 6.82129C1.56738 7.6709 3.01758 8.75 7.99805 12.3682C9.02832 13.1201 10.7666 14.7021 12.5 14.6924C14.2432 14.707 16.0156 13.0908 17.0068 12.3682C21.9873 8.75 23.4326 7.66602 24.5264 6.81641ZM12.5 13.125C13.6328 13.1445 15.2637 11.6992 16.084 11.1035C22.5635 6.40137 23.0566 5.99121 24.5508 4.81934C24.834 4.59961 25 4.25781 25 3.89648V2.96875C25 1.6748 23.9502 0.625 22.6562 0.625H2.34375C1.0498 0.625 0 1.6748 0 2.96875V3.89648C0 4.25781 0.166016 4.59473 0.449219 4.81934C1.94336 5.98633 2.43652 6.40137 8.91602 11.1035C9.73633 11.6992 11.3672 13.1445 12.5 13.125Z" fill="white"/>
</svg>
