<svg width="19" height="26" viewBox="0 0 19 26" fill="none" xmlns="http://www.w3.org/2000/svg">
<path d="M8.41104 24.9956C1.31641 14.7105 -0.000488281 13.6549 -0.000488281 9.875C-0.000488281 4.69731 4.19683 0.5 9.37451 0.5C14.5522 0.5 18.7495 4.69731 18.7495 9.875C18.7495 13.6549 17.4326 14.7105 10.338 24.9956C9.87241 25.6682 8.87656 25.6681 8.41104 24.9956ZM9.37451 13.7812C11.5319 13.7812 13.2808 12.0324 13.2808 9.875C13.2808 7.71763 11.5319 5.96875 9.37451 5.96875C7.21714 5.96875 5.46826 7.71763 5.46826 9.875C5.46826 12.0324 7.21714 13.7812 9.37451 13.7812Z" fill="white"/>
</svg>
